<svg xml:space="preserve" width="256" height="256" xmlns="http://www.w3.org/2000/svg"><defs><clipPath clipPathUnits="userSpaceOnUse" id="a"><path d="M18 289.043h559v263.914H18Z"/></clipPath><clipPath clipPathUnits="userSpaceOnUse" id="b"><path d="M18 289.167h557.331V552.11H18Z"/></clipPath><clipPath clipPathUnits="userSpaceOnUse" id="c"><path d="M18 289.043h559v263.914H18Z"/></clipPath></defs><g style="stroke-width:1.36949"><g clip-path="url(#a)" style="stroke-width:1.36949" transform="matrix(.9736 0 0 -.9736 33.118 537.533)"><path d="m18 510.49 72.088-41.62v83.24L18 510.49" style="fill:#24587c;fill-opacity:1;fill-rule:nonzero;stroke:none;stroke-width:1.36949"/><path d="m18.21 427.496 72.086 41.622-72.086 41.62v-83.242" style="fill:#3bb09d;fill-opacity:1;fill-rule:nonzero;stroke:none;stroke-width:1.36949"/></g><g clip-path="url(#b)" style="stroke-width:1.36949" transform="matrix(.9736 0 0 -.9736 33.118 537.533)"><path d="M90.188 386.182v83.239L18.1 427.801l72.088-41.619" style="fill:#79d1be;fill-opacity:1;fill-rule:nonzero;stroke:none;stroke-width:1.36949"/><path d="m176.91 330.662-72.086 41.62v-83.24l72.086 41.62" style="fill:#2c214b;fill-opacity:1;fill-rule:nonzero;stroke:none;stroke-width:1.36949"/></g><g clip-path="url(#c)" style="stroke-width:1.36949" transform="matrix(.9736 0 0 -.9736 33.118 537.533)"><path d="m176.702 413.656-72.088-41.622 72.088-41.619v83.241" style="fill:#24587c;fill-opacity:1;fill-rule:nonzero;stroke:none;stroke-width:1.36949"/><path d="M104.722 454.97v-83.239l72.088 41.62-72.088 41.62" style="fill:#3bb09d;fill-opacity:1;fill-rule:nonzero;stroke:none;stroke-width:1.36949"/></g></g></svg>