<?xml version="1.0" encoding="UTF-8"?><svg id="a" xmlns="http://www.w3.org/2000/svg" viewBox="0 0 561.74 176.24"><defs><style>.b{fill:#00ab9f;}.c{fill:#005c7a;}.d{fill:#ff226f;}.e{fill:#2bffdf;}.f{fill:#321f50;}</style></defs><g><path class="d" d="M209.99,104.16h5.46v-31.99h-5.46v-6.84h19.9c13.13,0,17.83,5.8,17.83,15.48,0,8.64-5.39,14.72-18.79,14.72h-4.15v8.64h5.8v6.84h-20.59v-6.84Zm18.86-15.82c6.22,0,9.05-2.35,9.05-7.53,0-6.01-2.56-8.29-8.43-8.29h-4.7v15.82h4.08Z"/><path class="d" d="M292.55,98.84c-1.52,7.19-7.25,13.13-18.45,13.13-15.06,0-21.76-10.5-21.76-24.18,0-14.72,7.95-23.42,21.83-23.42,11.05,0,17.76,5.39,17.76,13.06v.83l-9.12,2c-.21-5.18-2.63-8.15-8.78-8.15-8.29,0-11.75,5.25-11.75,15.75s4.08,16.37,11.61,16.37c4.63,0,9.6-2,10.16-7.74l8.5,2.35Z"/><path class="d" d="M294.62,104.16h3.94l13.96-38.83h9.26l14.85,38.83h3.94v6.84h-17.89v-6.84h4.42l-2.07-5.39h-15.61l-1.87,5.39h4.42v6.84h-17.34v-6.84Zm27.71-12.58l-5.39-15.06-5.04,15.06h10.43Z"/><path class="d" d="M345.47,72.17h-5.46v-6.84h20.24v6.84h-5.46v21c0,5.46,1.66,10.85,10.16,10.85s10.36-5.39,10.36-10.99v-20.87h-5.46v-6.84h19.9v6.84h-5.46v20.87c0,11.4-5.6,18.93-19.48,18.93s-19.35-7.25-19.35-18.79v-21Z"/></g><g><path class="b" d="M0,172.73H3.85v-22.81H0v-2.9H11.94c7.62,0,10.39,3.81,10.39,8.83,0,5.67-3.2,9.39-10.99,9.39h-3.72v7.49h4.24v2.9H0v-2.9Zm11.29-10.6c4.67,0,6.97-1.82,6.97-5.97,0-3.94-1.9-6.01-6.58-6.01H7.62v11.99h3.68Z"/><path class="b" d="M25.01,172.86h3.07v-25.53h-3.46v-2.77h6.92v15.28c.69-1.64,2.64-4.67,7.01-4.67,3.38,0,6.02,1.86,6.02,6.1v11.6h3.03v2.77h-9.22v-2.77h2.73v-10.6c0-2.99-1.04-4.11-3.12-4.11-4.46,0-6.06,5.11-6.45,6.88v7.83h2.73v2.77h-9.26v-2.77Z"/><path class="b" d="M50.98,172.73h3.85v-22.81h-3.85v-2.9h13.03c9.17,0,13.59,5.76,13.59,13.8s-4.07,14.8-13.54,14.8h-13.07v-2.9Zm12.9-.22c5.63,0,9.56-3.2,9.56-11.51s-3.94-10.86-9.82-10.86h-5.02v22.37h5.28Z"/><path class="b" d="M84.95,169.57c0,.13-.04,.26-.04,.39,0,1.95,1.51,3.42,4.63,3.42,2.55,0,4.33-.87,4.33-2.68,0-4.85-11.55-2.38-11.55-9.61,0-3.33,2.42-5.93,7.44-5.93,3.85,0,7.18,1.6,7.18,4.85,0,.26-.04,.61-.09,.91l-3.46,.61c.04-.17,.04-.39,.04-.61,0-1.34-.82-2.9-3.85-2.9-2.25,0-3.72,.78-3.72,2.47,0,4.98,11.64,2.21,11.64,9.56,0,3.94-3.29,6.19-7.83,6.19-3.85,0-8.05-1.6-8.05-5.54,0-.22,0-.39,.04-.61l3.29-.52Z"/><path class="b" d="M100.45,154.6c1.6-1.51,2.64-2.77,2.64-4.37,0-1.69-1.12-2.68-2.77-3.94l3.25-2.55c1.3,.48,2.9,2.08,2.9,4.89,0,3.07-1.9,5.41-4.5,7.44l-1.51-1.47Z"/><path class="b" d="M141.77,168.23c-.95,4.37-4.2,8-10.69,8-8.91,0-12.77-6.58-12.77-15.15,0-9.22,4.63-14.67,12.81-14.67,6.4,0,10.26,3.2,10.26,7.92v.52l-3.63,.78c-.13-3.89-2.16-6.1-6.71-6.1-5.89,0-8.57,3.98-8.57,11.6s3.07,11.99,8.48,11.99c3.33,0,7.01-1.43,7.36-5.8l3.46,.91Z"/><path class="b" d="M145.45,165.37c0-5.84,2.94-10.21,9.26-10.21s9.17,3.76,9.17,10.21-2.73,10.86-9.17,10.86-9.26-4.24-9.26-10.86Zm14.71,.43c0-5.02-1.9-7.79-5.45-7.79s-5.54,2.86-5.54,7.79,1.95,7.57,5.54,7.57,5.45-2.99,5.45-7.57Z"/><path class="b" d="M167.09,172.86h3.07v-25.53h-3.46v-2.77h6.92v28.3h3.12v2.77h-9.65v-2.77Z"/><path class="b" d="M179.21,172.86h3.07v-25.53h-3.46v-2.77h6.92v28.3h3.12v2.77h-9.65v-2.77Z"/><path class="b" d="M209.24,170.57c-1,3.55-3.59,5.67-7.96,5.67-5.89,0-9.26-3.29-9.26-10.43,0-5.32,2.25-10.65,9.17-10.65,5.24,0,8.05,2.86,8.05,8.92v2.16h-13.5c.04,3.68,1.08,7.14,5.63,7.14,2.6,0,4.28-1.6,4.85-3.42l3.03,.61Zm-3.59-7.1v-.78c0-2.64-1.43-4.67-4.54-4.67-2.77,0-4.72,1.69-5.24,5.45h9.78Z"/><path class="b" d="M229.67,170.57c-1,3.46-3.38,5.67-7.88,5.67-5.58,0-8.61-3.94-8.61-10.6,0-7.88,4.2-10.47,8.87-10.47,4.37,0,7.53,1.9,7.53,5.54,0,.22-.04,.43-.04,.69l-3.46,.61v-.52c0-2.73-1.69-3.46-4.02-3.46-3.98,0-5.15,3.76-5.15,7.7,0,5.54,2.16,7.66,4.93,7.66s4.33-1.51,4.76-3.42l3.07,.61Z"/><path class="b" d="M235.64,158.54h-3.68v-2.77h3.76l.22-5.89h3.16v5.89h5.63v2.77h-5.63v11.08c0,2.47,.48,3.59,1.86,3.59,1.08,0,1.77-.74,2.21-2.29l2.64,1.17c-.91,2.21-2.29,3.98-5.28,3.98-3.94,0-4.89-3.12-4.89-6.27v-11.25Z"/><path class="b" d="M248.37,172.86h3.07v-14.32h-3.46v-2.77h6.92v17.09h3.07v2.77h-9.61v-2.77Zm4.37-26.44c1.38,0,2.47,1.08,2.47,2.47s-1.08,2.47-2.47,2.47-2.47-1.04-2.47-2.47,1.04-2.47,2.47-2.47Z"/><path class="b" d="M261.52,158.54h-2.34v-2.77h9.09v2.77h-3.03l4.67,12.16,4.59-12.16h-2.81v-2.77h8.57v2.77h-2.38l-6.71,17.09h-2.77l-6.88-17.09Z"/><path class="b" d="M299.26,170.57c-1,3.55-3.59,5.67-7.96,5.67-5.88,0-9.26-3.29-9.26-10.43,0-5.32,2.25-10.65,9.17-10.65,5.24,0,8.05,2.86,8.05,8.92v2.16h-13.5c.04,3.68,1.08,7.14,5.63,7.14,2.6,0,4.28-1.6,4.85-3.42l3.03,.61Zm-3.59-7.1v-.78c0-2.64-1.43-4.67-4.54-4.67-2.77,0-4.72,1.69-5.24,5.45h9.78Z"/><path class="b" d="M310.17,172.73h2.68l9.95-25.71h2.86l10.04,25.71h2.68v2.9h-9.95v-2.9h3.16l-2.03-5.5h-10.86l-2.03,5.5h3.03v2.9h-9.52v-2.9Zm18.26-8.61l-4.28-11.51-4.28,11.51h8.57Z"/><path class="b" d="M356.95,170.57c-1,3.46-3.38,5.67-7.88,5.67-5.58,0-8.61-3.94-8.61-10.6,0-7.88,4.2-10.47,8.87-10.47,4.37,0,7.53,1.9,7.53,5.54,0,.22-.04,.43-.04,.69l-3.46,.61v-.52c0-2.73-1.69-3.46-4.03-3.46-3.98,0-5.15,3.76-5.15,7.7,0,5.54,2.16,7.66,4.93,7.66s4.33-1.51,4.76-3.42l3.07,.61Z"/><path class="b" d="M362.92,158.54h-3.68v-2.77h3.77l.22-5.89h3.16v5.89h5.62v2.77h-5.62v11.08c0,2.47,.48,3.59,1.86,3.59,1.08,0,1.77-.74,2.21-2.29l2.64,1.17c-.91,2.21-2.29,3.98-5.28,3.98-3.94,0-4.89-3.12-4.89-6.27v-11.25Z"/><path class="b" d="M375.65,172.86h3.07v-14.32h-3.46v-2.77h6.92v17.09h3.07v2.77h-9.61v-2.77Zm4.37-26.44c1.38,0,2.47,1.08,2.47,2.47s-1.08,2.47-2.47,2.47-2.47-1.04-2.47-2.47,1.04-2.47,2.47-2.47Z"/><path class="b" d="M388.46,165.37c0-5.84,2.94-10.21,9.26-10.21s9.17,3.76,9.17,10.21-2.73,10.86-9.17,10.86-9.26-4.24-9.26-10.86Zm14.71,.43c0-5.02-1.9-7.79-5.45-7.79s-5.54,2.86-5.54,7.79,1.95,7.57,5.54,7.57,5.45-2.99,5.45-7.57Z"/><path class="b" d="M410.7,172.86h3.07v-14.32h-3.46v-2.77h6.79v4.37c.61-1.43,2.47-4.98,7.14-4.98,3.38,0,6.02,1.86,6.02,6.1v11.6h3.03v2.77h-9.22v-2.77h2.73v-10.6c0-2.99-1.04-4.11-3.12-4.11-4.46,0-6.06,4.76-6.45,6.45v8.27h2.73v2.77h-9.26v-2.77Z"/><path class="b" d="M449.69,149.92h-3.85v-2.9h11.47v2.9h-3.85v14.54c0,4.28,1.3,8.53,7.57,8.53s7.7-4.07,7.7-8.18v-14.89h-3.85v-2.9h11.25v2.9h-3.85v14.89c0,6.66-3.33,11.42-11.34,11.42s-11.25-4.54-11.25-11.77v-14.54Z"/><path class="b" d="M478.6,172.86h3.07v-14.32h-3.46v-2.77h6.79v4.37c.61-1.43,2.47-4.98,7.14-4.98,3.38,0,6.02,1.86,6.02,6.1v11.6h3.03v2.77h-9.22v-2.77h2.73v-10.6c0-2.99-1.04-4.11-3.12-4.11-4.46,0-6.06,4.76-6.45,6.45v8.27h2.73v2.77h-9.26v-2.77Z"/><path class="b" d="M504.09,172.86h3.07v-14.32h-3.46v-2.77h6.92v17.09h3.07v2.77h-9.61v-2.77Zm4.37-26.44c1.38,0,2.47,1.08,2.47,2.47s-1.08,2.47-2.47,2.47-2.47-1.04-2.47-2.47,1.04-2.47,2.47-2.47Z"/><path class="b" d="M516.9,165.37c0-5.84,2.94-10.21,9.26-10.21s9.17,3.76,9.17,10.21-2.73,10.86-9.17,10.86-9.26-4.24-9.26-10.86Zm14.71,.43c0-5.02-1.9-7.79-5.45-7.79s-5.54,2.86-5.54,7.79,1.95,7.57,5.54,7.57,5.45-2.99,5.45-7.57Z"/><path class="b" d="M539.15,172.86h3.07v-14.32h-3.46v-2.77h6.79v4.37c.61-1.43,2.47-4.98,7.14-4.98,3.38,0,6.02,1.86,6.02,6.1v11.6h3.03v2.77h-9.22v-2.77h2.73v-10.6c0-2.99-1.04-4.11-3.12-4.11-4.46,0-6.06,4.76-6.45,6.45v8.27h2.73v2.77h-9.26v-2.77Z"/></g><polygon class="c" points="121.56 20.03 156.25 40.06 156.25 0 121.56 20.03"/><polygon class="b" points="121.66 59.97 156.35 39.94 121.66 19.91 121.66 59.97"/><polygon class="e" points="156.3 79.85 156.3 39.79 121.61 59.82 156.3 79.85"/><polygon class="f" points="198.03 106.56 163.34 86.54 163.34 126.59 198.03 106.56"/><polygon class="c" points="197.93 66.63 163.24 86.65 197.93 106.68 197.93 66.63"/><polygon class="b" points="163.29 46.74 163.29 86.8 197.98 66.77 163.29 46.74"/></svg>