<svg xml:space="preserve" width="749.333" height="236" xmlns="http://www.w3.org/2000/svg"><defs><clipPath clipPathUnits="userSpaceOnUse" id="a"><path d="M.06 176.236h561.676V0H.06Z"/></clipPath></defs><path d="M228.851 87.899c6.218 0 9.051 2.349 9.051 7.531 0 6.011-2.556 8.291-8.429 8.291h-4.699V87.899Zm-18.862-15.822h5.458v31.989h-5.458v6.841h19.899c13.127 0 17.825-5.804 17.825-15.477 0-8.637-5.389-14.717-18.793-14.717h-4.146v-8.636h5.804v-6.84h-20.589v6.84M292.551 77.397c-1.52-7.186-7.254-13.127-18.447-13.127-15.062 0-21.764 10.502-21.764 24.182 0 14.716 7.945 23.421 21.833 23.421 11.055 0 17.757-5.388 17.757-13.058v-.829l-9.12-2.003c-.208 5.181-2.626 8.152-8.776 8.152-8.291 0-11.745-5.251-11.745-15.753 0-10.985 4.076-16.374 11.607-16.374 4.629 0 9.604 2.003 10.157 7.739l8.498-2.35M322.327 84.652l-5.389 15.061-5.043-15.061zm-27.706-12.575h3.939l13.956 38.83h9.258l14.855-38.83h3.938v-6.84h-17.894v6.84h4.422l-2.074 5.389h-15.614l-1.866-5.389h4.422v-6.84h-17.342v6.84" style="fill:#ed146e;fill-opacity:1;fill-rule:nonzero;stroke:none" transform="matrix(1.33333 0 0 -1.33333 0 236)"/><g clip-path="url(#a)" transform="matrix(1.33333 0 0 -1.33333 0 236)"><path d="M345.471 104.066h-5.458v6.841h20.244v-6.841h-5.459V83.063c0-5.459 1.658-10.848 10.157-10.848 8.359 0 10.363 5.389 10.363 10.986v20.865h-5.458v6.841h19.899v-6.841H384.3V83.201c0-11.401-5.596-18.931-19.484-18.931-13.265 0-19.345 7.254-19.345 18.793v21.003" style="fill:#ed146e;fill-opacity:1;fill-rule:nonzero;stroke:none"/><path d="M11.294 14.108c4.674 0 6.967 1.817 6.967 5.972 0 3.937-1.904 6.014-6.577 6.014H7.616V14.108ZM0 3.505h3.851v22.806H0v2.899h11.943c7.617 0 10.386-3.808 10.386-8.828 0-5.669-3.202-9.39-10.992-9.39H7.616V3.505h4.241V.606H0v2.899" style="fill:#2e2d2d;fill-opacity:1;fill-rule:nonzero;stroke:none"/></g><path d="M25.014 3.375h3.072v25.532h-3.462v2.769h6.924V16.401c.693 1.644 2.64 4.674 7.011 4.674 3.375 0 6.015-1.862 6.015-6.102V3.375h3.029V.606h-9.217v2.769h2.726v10.603c0 2.985-1.038 4.11-3.115 4.11-4.458 0-6.059-5.106-6.449-6.88V3.375h2.727V.606h-9.261v2.769M63.877 3.721c5.625 0 9.563 3.203 9.563 11.512 0 7.962-3.938 10.861-9.823 10.861h-5.02V3.721Zm-12.896-.216h3.851v22.806h-3.851v2.899h13.025c9.174 0 13.588-5.755 13.588-13.804 0-7.659-4.068-14.8-13.545-14.8H50.981v2.899M84.953 6.665c0-.13-.043-.26-.043-.39 0-1.947 1.514-3.419 4.63-3.419 2.553 0 4.327.865 4.327 2.684 0 4.846-11.554 2.379-11.554 9.606 0 3.332 2.423 5.929 7.443 5.929 3.852 0 7.184-1.602 7.184-4.847 0-.26-.044-.606-.087-.909l-3.462-.606c.044.173.044.39.044.606 0 1.342-.823 2.899-3.852 2.899-2.25 0-3.721-.778-3.721-2.467 0-4.976 11.64-2.207 11.64-9.563C97.502 2.25 94.213 0 89.67 0c-3.852 0-8.049 1.601-8.049 5.54 0 .215 0 .388.043.605l3.289.52M100.447 21.637c1.601 1.515 2.639 2.77 2.639 4.37 0 1.689-1.125 2.684-2.769 3.939l3.246 2.553c1.298-.476 2.899-2.078 2.899-4.89 0-3.072-1.904-5.409-4.501-7.443l-1.514 1.471M141.774 8.005C140.822 3.635 137.577 0 131.085 0c-8.914 0-12.766 6.578-12.766 15.146 0 9.218 4.631 14.67 12.809 14.67 6.405 0 10.256-3.202 10.256-7.919v-.52l-3.634-.779c-.13 3.895-2.164 6.102-6.708 6.102-5.885 0-8.568-3.981-8.568-11.597 0-7.919 3.072-11.987 8.482-11.987 3.332 0 7.01 1.427 7.356 5.799l3.462-.91M160.168 10.429c0 5.02-1.904 7.789-5.453 7.789-3.591 0-5.539-2.855-5.539-7.789 0-4.976 1.948-7.573 5.539-7.573 3.549 0 5.453 2.986 5.453 7.573zm-14.713.433c0 5.842 2.942 10.213 9.26 10.213 6.102 0 9.174-3.765 9.174-10.213 0-6.145-2.726-10.862-9.174-10.862-6.534 0-9.26 4.241-9.26 10.862M167.093 3.375h3.073v25.532h-3.462v2.769h6.923V3.375h3.117V.606h-9.651v2.769M179.211 3.375h3.073v25.532h-3.462v2.769h6.924V3.375h3.115V.606h-9.65v2.769M205.652 12.766v.778c0 2.64-1.428 4.674-4.544 4.674-2.769 0-4.716-1.687-5.235-5.452zm3.592-7.097C208.249 2.121 205.652 0 201.282 0c-5.886 0-9.261 3.289-9.261 10.429 0 5.322 2.25 10.646 9.174 10.646 5.236 0 8.049-2.857 8.049-8.915V9.997h-13.501c.043-3.679 1.082-7.141 5.625-7.141 2.597 0 4.284 1.602 4.847 3.419l3.029-.606M229.671 5.669C228.675 2.208 226.295 0 221.795 0c-5.583 0-8.611 3.938-8.611 10.602 0 7.876 4.197 10.473 8.871 10.473 4.37 0 7.529-1.905 7.529-5.539 0-.217-.043-.433-.043-.693l-3.462-.606v.519c0 2.727-1.687 3.462-4.024 3.462-3.982 0-5.15-3.764-5.15-7.702 0-5.539 2.164-7.66 4.933-7.66 2.683 0 4.328 1.515 4.76 3.419l3.073-.606M235.644 17.699h-3.678v2.769h3.764l.217 5.886h3.159v-5.886h5.625v-2.769h-5.625V6.621c0-2.466.476-3.591 1.861-3.591 1.081 0 1.774.735 2.206 2.293l2.64-1.168c-.908-2.207-2.293-3.982-5.279-3.982-3.938 0-4.89 3.116-4.89 6.275v11.251M252.738 29.816a2.439 2.439 0 0 0 2.467-2.467c0-1.428-1.082-2.467-2.467-2.467-1.428 0-2.467 1.039-2.467 2.467 0 1.385 1.039 2.467 2.467 2.467zm-4.37-26.441h3.072v14.324h-3.462v2.769h6.924V3.375h3.073V.606h-9.607v2.769M261.524 17.699h-2.337v2.769h9.087v-2.769h-3.028l4.673-12.159 4.587 12.159h-2.813v2.769h8.569v-2.769h-2.381L271.174.606h-2.77l-6.88 17.093M295.669 12.766v.778c0 2.64-1.429 4.674-4.544 4.674-2.77 0-4.717-1.687-5.236-5.452zm3.592-7.097C298.266 2.121 295.669 0 291.298 0c-5.885 0-9.261 3.289-9.261 10.429 0 5.322 2.251 10.646 9.175 10.646 5.235 0 8.049-2.857 8.049-8.915V9.997h-13.502c.044-3.679 1.082-7.141 5.626-7.141 2.596 0 4.284 1.602 4.846 3.419l3.03-.606M328.43 12.117l-4.284 11.51-4.285-11.51zm-18.262-8.612h2.683l9.953 25.705h2.856l10.039-25.705h2.684V.606h-9.953v2.899h3.159l-2.034 5.496h-10.863l-2.034-5.496h3.03V.606h-9.52v2.899M356.949 5.669C355.954 2.208 353.574 0 349.074 0c-5.583 0-8.612 3.938-8.612 10.602 0 7.876 4.198 10.473 8.871 10.473 4.371 0 7.53-1.905 7.53-5.539 0-.217-.044-.433-.044-.693l-3.461-.606v.519c0 2.727-1.688 3.462-4.025 3.462-3.98 0-5.149-3.764-5.149-7.702 0-5.539 2.164-7.66 4.933-7.66 2.683 0 4.327 1.515 4.76 3.419l3.072-.606M362.924 17.699h-3.679v2.769h3.766l.216 5.886h3.159v-5.886h5.625v-2.769h-5.625V6.621c0-2.466.475-3.591 1.86-3.591 1.082 0 1.775.735 2.207 2.293l2.64-1.168c-.908-2.207-2.293-3.982-5.28-3.982-3.937 0-4.889 3.116-4.889 6.275v11.251M380.018 29.816a2.439 2.439 0 0 0 2.466-2.467c0-1.428-1.082-2.467-2.466-2.467-1.428 0-2.467 1.039-2.467 2.467 0 1.385 1.039 2.467 2.467 2.467zm-4.372-26.441h3.074v14.324h-3.462v2.769h6.924V3.375h3.072V.606h-9.608v2.769M403.17 10.429c0 5.02-1.903 7.789-5.452 7.789-3.592 0-5.539-2.855-5.539-7.789 0-4.976 1.947-7.573 5.539-7.573 3.549 0 5.452 2.986 5.452 7.573zm-14.713.433c0 5.842 2.942 10.213 9.261 10.213 6.101 0 9.174-3.765 9.174-10.213 0-6.145-2.727-10.862-9.174-10.862-6.534 0-9.261 4.241-9.261 10.862M410.701 3.375h3.073v14.324h-3.461v2.769h6.793v-4.37c.606 1.428 2.467 4.977 7.14 4.977 3.376 0 6.016-1.862 6.016-6.102V3.375h3.029V.606h-9.218v2.769h2.727v10.603c0 2.985-1.039 4.11-3.116 4.11-4.457 0-6.059-4.759-6.448-6.447V3.375h2.726V.606h-9.261v2.769M449.693 26.311h-3.851v2.899h11.468v-2.899h-3.852v-14.54c0-4.284 1.298-8.525 7.573-8.525 6.188 0 7.702 4.067 7.702 8.178v14.887h-3.851v2.899h11.252v-2.899h-3.852V11.424C472.282 4.76 468.95 0 460.944 0c-7.789 0-11.251 4.543-11.251 11.771v14.54M478.602 3.375h3.073v14.324h-3.462v2.769h6.794v-4.37c.605 1.428 2.467 4.977 7.139 4.977 3.376 0 6.016-1.862 6.016-6.102V3.375h3.029V.606h-9.217v2.769h2.726v10.603c0 2.985-1.039 4.11-3.116 4.11-4.457 0-6.059-4.759-6.447-6.447V3.375h2.725V.606h-9.26v2.769M508.463 29.816a2.439 2.439 0 0 0 2.467-2.467c0-1.428-1.082-2.467-2.467-2.467-1.428 0-2.467 1.039-2.467 2.467 0 1.385 1.039 2.467 2.467 2.467zm-4.371-26.441h3.073v14.324h-3.462v2.769h6.924V3.375h3.072V.606h-9.607v2.769M531.615 10.429c0 5.02-1.903 7.789-5.452 7.789-3.592 0-5.539-2.855-5.539-7.789 0-4.976 1.947-7.573 5.539-7.573 3.549 0 5.452 2.986 5.452 7.573zm-14.713.433c0 5.842 2.943 10.213 9.261 10.213 6.102 0 9.174-3.765 9.174-10.213C535.337 4.717 532.61 0 526.163 0c-6.534 0-9.261 4.241-9.261 10.862M539.146 3.375h3.074v14.324h-3.462v2.769h6.794v-4.37c.605 1.428 2.467 4.977 7.139 4.977 3.376 0 6.016-1.862 6.016-6.102V3.375h3.029V.606h-9.217v2.769h2.726v10.603c0 2.985-1.039 4.11-3.116 4.11-4.457 0-6.059-4.759-6.447-6.447V3.375h2.725V.606h-9.261v2.769" style="fill:#2e2d2d;fill-opacity:1;fill-rule:nonzero;stroke:none" transform="matrix(1.33333 0 0 -1.33333 0 236)"/><path d="m121.562 156.208 34.69-20.028v40.056l-34.69-20.028" style="fill:#24587c;fill-opacity:1;fill-rule:nonzero;stroke:none" transform="matrix(1.33333 0 0 -1.33333 0 236)"/><path d="m121.663 116.27 34.689 20.028-34.689 20.028V116.27" style="fill:#3bb09d;fill-opacity:1;fill-rule:nonzero;stroke:none" transform="matrix(1.33333 0 0 -1.33333 0 236)"/><path d="M156.3 96.389v40.056l-34.69-20.028 34.69-20.028" style="fill:#79d1be;fill-opacity:1;fill-rule:nonzero;stroke:none" transform="matrix(1.33333 0 0 -1.33333 0 236)"/><path d="M198.032 69.672 163.343 89.7V49.644l34.689 20.028" style="fill:#2c214b;fill-opacity:1;fill-rule:nonzero;stroke:none" transform="matrix(1.33333 0 0 -1.33333 0 236)"/><path d="m197.932 109.609-34.69-20.028 34.69-20.028v40.056" style="fill:#24587c;fill-opacity:1;fill-rule:nonzero;stroke:none" transform="matrix(1.33333 0 0 -1.33333 0 236)"/><path d="M163.295 129.491V89.435l34.689 20.028-34.689 20.028" style="fill:#3bb09d;fill-opacity:1;fill-rule:nonzero;stroke:none" transform="matrix(1.33333 0 0 -1.33333 0 236)"/></svg>