<svg xml:space="preserve" width="744" height="351" xmlns="http://www.w3.org/2000/svg"><defs><clipPath clipPathUnits="userSpaceOnUse" id="a"><path d="M18 289.043h559v263.914H18Z"/></clipPath><clipPath clipPathUnits="userSpaceOnUse" id="b"><path d="M18 289.167h557.331V552.11H18Z"/></clipPath><clipPath clipPathUnits="userSpaceOnUse" id="c"><path d="M18 289.043h559v263.914H18Z"/></clipPath></defs><g clip-path="url(#a)" transform="matrix(1.33333 0 0 -1.33333 -24 736.146)"><path d="M240.954 368.54c12.921 0 18.808 4.88 18.808 15.65 0 12.49-5.311 17.228-17.516 17.228h-9.765V368.54Zm-39.197-32.88H213.1v66.475h-11.342v14.216h41.352c27.278 0 37.041-12.06 37.041-32.162 0-17.948-11.198-30.583-39.053-30.583h-8.616V335.66h12.061v-14.214h-42.785v14.214M373.327 346.715c-3.16-14.933-15.075-27.278-38.337-27.278-31.3 0-45.225 21.823-45.225 50.251 0 30.581 16.51 48.67 45.37 48.67 22.972 0 36.901-11.196 36.901-27.135v-1.722l-18.954-4.163c-.432 10.769-5.457 16.94-18.235 16.94-17.23 0-24.407-10.911-24.407-32.735 0-22.828 8.47-34.026 24.12-34.026 9.62 0 19.958 4.162 21.107 16.082l17.66-4.884M435.203 361.792l-11.2 31.298-10.48-31.298zm-57.575-26.132h8.184l29.003 80.691h19.239l30.87-80.691h8.183v-14.214h-37.185v14.214h9.19l-4.31 11.199h-32.448l-3.877-11.199h9.189v-14.214h-36.038v14.214M483.298 402.135h-11.342v14.216h42.068v-14.216H502.68V358.49c0-11.345 3.445-22.543 21.107-22.543 17.37 0 21.535 11.198 21.535 22.83v43.358H533.98v14.216h41.351v-14.216h-11.344v-43.359c0-23.692-11.629-39.34-40.489-39.34-27.566 0-40.2 15.075-40.2 39.054v43.645" style="fill:#ed146e;fill-opacity:1;fill-rule:nonzero;stroke:none"/><path d="m18 510.49 72.088-41.62v83.24L18 510.49" style="fill:#24587c;fill-opacity:1;fill-rule:nonzero;stroke:none"/><path d="m18.21 427.496 72.086 41.622-72.086 41.62v-83.242" style="fill:#3bb09d;fill-opacity:1;fill-rule:nonzero;stroke:none"/></g><g clip-path="url(#b)" transform="matrix(1.33333 0 0 -1.33333 -24 736.146)"><path d="M90.188 386.182v83.239L18.1 427.801l72.088-41.619" style="fill:#79d1be;fill-opacity:1;fill-rule:nonzero;stroke:none"/><path d="m176.91 330.662-72.086 41.62v-83.24l72.086 41.62" style="fill:#2c214b;fill-opacity:1;fill-rule:nonzero;stroke:none"/></g><g clip-path="url(#c)" transform="matrix(1.33333 0 0 -1.33333 -24 736.146)"><path d="m176.702 413.656-72.088-41.622 72.088-41.619v83.241" style="fill:#24587c;fill-opacity:1;fill-rule:nonzero;stroke:none"/><path d="M104.722 454.97v-83.239l72.088 41.62-72.088 41.62" style="fill:#3bb09d;fill-opacity:1;fill-rule:nonzero;stroke:none"/></g></svg>